<svg width="781" height="781" viewBox="0 0 781 781" fill="none" xmlns="http://www.w3.org/2000/svg">
<path d="M548.418 662.6C518.115 662.6 493.436 637.947 493.436 607.618V375.192C493.436 364.336 502.235 355.537 513.091 355.537C523.947 355.537 532.746 364.336 532.746 375.192V607.618C532.746 616.261 539.775 623.29 548.418 623.29C557.061 623.29 564.09 616.261 564.09 607.618V567.214C564.09 556.358 572.89 547.559 583.745 547.559C594.601 547.559 603.401 556.358 603.401 567.214V607.618C603.375 637.947 578.721 662.6 548.418 662.6Z" fill="#CA1C86"/>
<path d="M431.372 737.55C420.516 737.55 411.717 728.751 411.717 717.895V355.563C411.717 344.707 420.516 335.908 431.372 335.908C442.228 335.908 451.027 344.707 451.027 355.563V717.921C451.027 728.751 442.228 737.55 431.372 737.55Z" fill="#CA1C86"/>
<path d="M349.654 737.55C338.798 737.55 329.999 728.751 329.999 717.895V355.563C329.999 344.707 338.798 335.908 349.654 335.908C360.51 335.908 369.309 344.707 369.309 355.563V717.921C369.309 728.751 360.51 737.55 349.654 737.55Z" fill="#CA1C86"/>
<path d="M232.608 662.6C202.305 662.6 177.625 637.947 177.625 607.618V567.214C177.625 556.358 186.425 547.559 197.281 547.559C208.137 547.559 216.936 556.358 216.936 567.214V607.618C216.936 616.261 223.965 623.29 232.608 623.29C241.251 623.29 248.28 616.261 248.28 607.618V375.192C248.28 364.336 257.079 355.537 267.935 355.537C278.791 355.537 287.59 364.336 287.59 375.192V607.618C287.59 637.947 262.937 662.6 232.608 662.6Z" fill="#CA1C86"/>
<path d="M678.741 372.173C678.741 412.654 647.032 449.596 589.447 476.202C578.877 481.07 567.709 485.496 555.916 489.479V453.318C562.58 450.767 568.985 448.086 575.154 445.274C619.359 424.864 644.689 398.232 644.689 372.173V370.949C643.908 345.28 618.682 319.169 575.154 299.071C526.134 276.422 460.53 263.952 390.526 263.952C320.47 263.952 254.918 276.396 205.898 299.071C162.396 319.169 137.118 345.28 136.363 370.949C136.337 371.339 136.337 371.73 136.337 372.173C136.337 385.189 142.663 398.362 154.56 410.832C166.431 423.276 183.795 435.069 205.898 445.248C212.068 448.06 218.498 450.767 225.136 453.292V489.453C213.369 485.47 202.175 481.044 191.605 476.176C139.513 452.121 108.559 419.579 103.118 383.653C102.545 379.852 102.259 376.025 102.259 372.147C102.259 362.983 102.571 353.923 103.222 344.916C104.524 326.744 107.127 308.885 110.954 291.443C113.141 281.577 115.692 271.84 118.66 262.286C123.528 246.614 129.412 231.358 136.337 216.675C149.379 189.106 165.989 163.489 185.878 140.606C240.392 77.9698 313.051 43.4496 390.5 43.4496C450.741 43.4496 508.067 64.3284 556.254 103.092C560.576 106.554 564.819 110.173 568.985 113.974C578.07 122.174 586.817 131.052 595.122 140.606C604.338 151.202 612.851 162.37 620.609 174.085C623.576 178.537 626.414 183.092 629.174 187.7C651.666 225.345 666.896 267.779 674.055 312.66C677.153 332.081 678.741 351.971 678.741 372.173Z" fill="#CA1C86"/>
<path opacity="0.18" d="M569.01 113.974C324.193 48.3699 187.049 165.468 118.66 262.338C123.528 246.666 129.412 231.41 136.337 216.727C149.379 189.106 165.989 163.489 185.878 140.606C240.392 77.9698 313.051 43.4496 390.5 43.4496C450.741 43.4496 508.066 64.3284 556.254 103.092C560.602 106.58 564.845 110.199 569.01 113.974Z" fill="#CA1C86"/>
<path opacity="0.18" d="M629.174 187.7C313.129 78.7769 103.248 344.942 103.248 344.942C103.248 344.942 103.248 344.942 103.222 344.942C104.524 326.77 107.127 308.912 110.954 291.469C113.141 281.603 115.692 271.866 118.66 262.312C123.528 246.64 129.412 231.384 136.337 216.701C149.379 189.106 165.989 163.489 185.878 140.606C240.392 77.9698 313.051 43.4496 390.5 43.4496C450.741 43.4496 508.067 64.3284 556.254 103.092C560.576 106.554 564.819 110.173 568.985 113.974C578.07 122.174 586.817 131.052 595.122 140.606C604.338 151.202 612.851 162.37 620.609 174.085C623.576 178.537 626.44 183.092 629.174 187.7Z" fill="#CA1C86"/>
</svg>
