<?xml version="1.0" encoding="utf-8"?>
<!-- Generator: Adobe Illustrator 25.0.0, SVG Export Plug-In . SVG Version: 6.00 Build 0)  -->
<svg version="1.1" id="Layer_1" xmlns="http://www.w3.org/2000/svg" xmlns:xlink="http://www.w3.org/1999/xlink" x="0px" y="0px"
	 viewBox="0 0 3000 2699.5" style="enable-background:new 0 0 3000 2699.5;" xml:space="preserve">
<style type="text/css">
	.st0{fill:#060B27;}
	.st1{fill:#FFF682;}
	.st2{fill:#010049;}
	.st3{fill:url(#SVGID_1_);}
	.st4{fill:url(#SVGID_2_);}
	.st5{fill:url(#SVGID_3_);}
	.st6{fill:url(#SVGID_4_);}
	.st7{fill:url(#SVGID_5_);}
	.st8{opacity:0.18;fill:#FFFFFF;}
	.st9{fill:#FFFFFF;}
	.st10{fill:url(#SVGID_6_);}
	.st11{fill:url(#SVGID_7_);}
	.st12{fill:url(#SVGID_8_);}
	.st13{fill:url(#SVGID_9_);}
	.st14{fill:url(#SVGID_10_);}
	.st15{opacity:0.18;}
</style>
<g>
	<g>
		<path class="st9" d="M450.6,1956.8c30.6,16,54.5,39.8,71.7,71.3c17.2,31.5,25.8,69.5,25.8,114v289.5H447.5v-274.4
			c0-43.9-11-77.6-33-101.1c-22-23.5-52-35.2-90-35.2c-38,0-68.2,11.7-90.4,35.2c-22.3,23.5-33.4,57.2-33.4,101.1v274.4H99.2v-490.9
			h101.6v56.1c16.6-20.2,37.9-35.9,63.7-47.2c25.8-11.3,53.3-16.9,82.4-16.9C385.4,1932.8,420,1940.8,450.6,1956.8z"/>
		<path class="st9" d="M1123.7,2224.1H748.6c3,39.2,17.5,70.7,43.7,94.4c26.1,23.8,58.2,35.6,96.2,35.6c54.6,0,93.2-22.9,115.8-68.6
			h109.6c-14.9,45.1-41.7,82.1-80.6,110.9c-38.9,28.8-87.2,43.2-144.8,43.2c-46.9,0-88.9-10.5-126.1-31.6
			c-37.1-21.1-66.2-50.8-87.3-89.1c-21.1-38.3-31.6-82.7-31.6-133.2c0-50.5,10.2-94.9,30.7-133.2c20.5-38.3,49.3-67.8,86.4-88.6
			c37.1-20.8,79.7-31.2,127.8-31.2c46.3,0,87.6,10.1,123.8,30.3c36.2,20.2,64.4,48.6,84.6,85.1c20.2,36.5,30.3,78.6,30.3,126.1
			C1127.2,2192.6,1126,2209.2,1123.7,2224.1z M1021.2,2142.1c-0.6-37.4-14-67.4-40.1-90c-26.1-22.6-58.5-33.9-97.1-33.9
			c-35,0-65,11.1-90,33.4c-24.9,22.3-39.8,52.4-44.5,90.4H1021.2z"/>
		<path class="st9" d="M1372,1857.9l115.3,171.8l114-171.8h-75.7v-81.8h251.9v81.8h-81.8l-162.3,240.6l176.6,251.4h84.4v81.8h-268.8
			v-81.8h76.6l-121.4-179.2l-120.1,179.2h80v81.8h-261v-81.8h86.6l168.3-248.8l-167.5-243.2h-84v-81.8h263.6v81.8H1372z"/>
		<path class="st9" d="M2327.1,2224.1h-375.1c3,39.2,17.5,70.7,43.7,94.4c26.1,23.8,58.2,35.6,96.2,35.6
			c54.6,0,93.2-22.9,115.8-68.6h109.6c-14.9,45.1-41.7,82.1-80.6,110.9c-38.9,28.8-87.2,43.2-144.8,43.2
			c-46.9,0-88.9-10.5-126.1-31.6c-37.1-21.1-66.2-50.8-87.3-89.1c-21.1-38.3-31.6-82.7-31.6-133.2c0-50.5,10.2-94.9,30.7-133.2
			c20.5-38.3,49.3-67.8,86.4-88.6c37.1-20.8,79.7-31.2,127.8-31.2c46.3,0,87.6,10.1,123.8,30.3c36.2,20.2,64.4,48.6,84.6,85.1
			c20.2,36.5,30.3,78.6,30.3,126.1C2330.7,2192.6,2329.5,2209.2,2327.1,2224.1z M2224.7,2142.1c-0.6-37.4-14-67.4-40.1-90
			c-26.1-22.6-58.5-33.9-97.1-33.9c-35,0-65,11.1-90,33.4c-24.9,22.3-39.8,52.4-44.5,90.4H2224.7z"/>
		<path class="st9" d="M2427.3,2053c20.5-38,48.4-67.6,83.7-88.6c35.3-21.1,74.7-31.6,118-31.6c32.1,0,63.7,7,94.9,20.9
			c31.2,14,56,32.5,74.4,55.7v-237h102.4v659.2h-102.4v-73.9c-16.6,23.8-39.6,43.4-69,58.8c-29.4,15.4-63.1,23.2-101.1,23.2
			c-42.8,0-81.8-10.8-117.2-32.5c-35.3-21.7-63.2-52-83.7-90.9c-20.5-38.9-30.7-83-30.7-132.3
			C2396.6,2134.7,2406.8,2091,2427.3,2053z M2777.4,2097.6c-14-24.9-32.2-43.9-54.8-57c-22.6-13.1-46.9-19.6-73.1-19.6
			c-26.1,0-50.5,6.4-73.1,19.2c-22.6,12.8-40.8,31.5-54.8,56.1c-14,24.7-20.9,53.9-20.9,87.8c0,33.9,7,63.6,20.9,89.1
			c13.9,25.5,32.4,45,55.2,58.4c22.9,13.4,47.1,20,72.6,20c26.1,0,50.5-6.5,73.1-19.6c22.6-13.1,40.8-32.2,54.8-57.5
			c13.9-25.2,20.9-54.8,20.9-88.6C2798.4,2151.9,2791.4,2122.5,2777.4,2097.6z"/>
	</g>
	<g>
		<g>
			<linearGradient id="SVGID_1_" gradientUnits="userSpaceOnUse" x1="1191.5729" y1="1618.3821" x2="1191.5729" y2="775.1775">
				<stop  offset="0" style="stop-color:#CD1DFF"/>
				<stop  offset="1" style="stop-color:#7500DB"/>
			</linearGradient>
			<path class="st3" d="M1191.6,1469.4c-59.2,0-107.4-48.2-107.4-107.4v-78.9c0-21.2,17.2-38.4,38.4-38.4
				c21.2,0,38.4,17.2,38.4,38.4v78.9c0,16.9,13.7,30.6,30.6,30.6c16.9,0,30.6-13.7,30.6-30.6V907.9c0-21.2,17.2-38.4,38.4-38.4
				c21.2,0,38.4,17.2,38.4,38.4V1362C1299,1421.2,1250.8,1469.4,1191.6,1469.4z"/>
		</g>
		<g>
			<linearGradient id="SVGID_2_" gradientUnits="userSpaceOnUse" x1="1808.4852" y1="1618.3821" x2="1808.4852" y2="775.1775">
				<stop  offset="0" style="stop-color:#CD1DFF"/>
				<stop  offset="1" style="stop-color:#7500DB"/>
			</linearGradient>
			<path class="st4" d="M1808.5,1469.4c-59.2,0-107.4-48.2-107.4-107.4V907.9c0-21.2,17.2-38.4,38.4-38.4
				c21.2,0,38.4,17.2,38.4,38.4V1362c0,16.9,13.7,30.6,30.6,30.6c16.9,0,30.6-13.7,30.6-30.6v-78.9c0-21.2,17.2-38.4,38.4-38.4
				c21.2,0,38.4,17.2,38.4,38.4v78.9C1915.9,1421.2,1867.7,1469.4,1808.5,1469.4z"/>
		</g>
		<g>
			<linearGradient id="SVGID_3_" gradientUnits="userSpaceOnUse" x1="1420.214" y1="1618.3821" x2="1420.214" y2="775.1775">
				<stop  offset="0" style="stop-color:#CD1DFF"/>
				<stop  offset="1" style="stop-color:#7500DB"/>
			</linearGradient>
			<path class="st5" d="M1420.2,1615.8c-21.2,0-38.4-17.2-38.4-38.4V869.6c0-21.2,17.2-38.4,38.4-38.4c21.2,0,38.4,17.2,38.4,38.4
				v707.9C1458.6,1598.6,1441.4,1615.8,1420.2,1615.8z"/>
		</g>
		<g>
			<linearGradient id="SVGID_4_" gradientUnits="userSpaceOnUse" x1="1579.8436" y1="1618.3821" x2="1579.8436" y2="775.1775">
				<stop  offset="0" style="stop-color:#CD1DFF"/>
				<stop  offset="1" style="stop-color:#7500DB"/>
			</linearGradient>
			<path class="st6" d="M1579.8,1615.8c-21.2,0-38.4-17.2-38.4-38.4V869.6c0-21.2,17.2-38.4,38.4-38.4c21.2,0,38.4,17.2,38.4,38.4
				v707.9C1618.2,1598.6,1601,1615.8,1579.8,1615.8z"/>
		</g>
		<linearGradient id="SVGID_5_" gradientUnits="userSpaceOnUse" x1="1378.6469" y1="292.3386" x2="1558.0553" y2="1148.6066">
			<stop  offset="0" style="stop-color:#CD1DFF"/>
			<stop  offset="1" style="stop-color:#7500DB"/>
		</linearGradient>
		<path class="st7" d="M2063.1,902c0,79.1-62,151.2-174.5,203.2c-20.6,9.5-42.5,18.2-65.5,25.9v-70.6c13-5,25.5-10.2,37.6-15.7
			c86.3-39.9,135.8-91.9,135.8-142.8v-2.4c-1.5-50.2-50.8-101.1-135.8-140.4c-95.8-44.2-223.9-68.6-360.7-68.6
			c-136.8,0-264.9,24.3-360.7,68.6c-85,39.3-134.3,90.3-135.8,140.4c-0.1,0.8-0.1,1.5-0.1,2.4c0,25.4,12.4,51.1,35.6,75.5
			c23.2,24.3,57.1,47.3,100.3,67.3c12,5.5,24.6,10.8,37.6,15.7v70.6c-23-7.8-44.9-16.4-65.5-25.9c-101.7-47-162.2-110.6-172.9-180.7
			c-1.1-7.4-1.7-14.9-1.7-22.5c0-17.9,0.6-35.6,1.9-53.2c2.5-35.5,7.6-70.4,15.1-104.4c4.2-19.3,9.3-38.3,15.1-56.9
			c9.5-30.6,21-60.4,34.5-89.1c25.4-54,57.9-104,96.8-148.7c106.5-122.4,248.4-189.8,399.7-189.8c117.7,0,229.7,40.8,323.8,116.5
			c8.4,6.8,16.7,13.8,24.9,21.2c17.8,16,34.8,33.4,51,52c18,20.7,34.6,42.5,49.8,65.4c5.8,8.7,11.4,17.6,16.7,26.6
			c43.9,73.5,73.7,156.4,87.7,244.1C2060,823.7,2063.1,862.6,2063.1,902z"/>
		<path class="st8" d="M1848.7,397.6C1370.5,269.5,1102.6,498.2,969,687.5c9.5-30.6,21-60.4,34.5-89.1c25.4-54,57.9-104,96.8-148.7
			c106.5-122.4,248.4-189.8,399.7-189.8c117.7,0,229.7,40.8,323.8,116.5C1832.3,383.2,1840.6,390.2,1848.7,397.6z"/>
		<path class="st8" d="M1966.2,541.6C1348.9,328.9,938.9,848.9,938.9,848.9s0,0-0.1,0c2.5-35.5,7.6-70.4,15.1-104.4
			c4.2-19.3,9.3-38.3,15.1-56.9c9.5-30.6,21-60.4,34.5-89.1c25.4-54,57.9-104,96.8-148.7c106.5-122.4,248.4-189.8,399.7-189.8
			c117.7,0,229.7,40.8,323.8,116.5c8.4,6.8,16.7,13.8,24.9,21.2c17.8,16,34.8,33.4,51,52c18,20.7,34.6,42.5,49.8,65.4
			C1955.3,523.8,1960.9,532.6,1966.2,541.6z"/>
	</g>
</g>
</svg>
