<svg width="1348" height="351" viewBox="0 0 1348 351" fill="none" xmlns="http://www.w3.org/2000/svg">
<path d="M1087.88 217.199C1087.88 191 1093.18 168.076 1103.79 148.426C1114.39 128.465 1128.89 113.026 1147.3 102.11C1166.01 91.1935 1186.91 85.7354 1209.99 85.7354C1229.95 85.7354 1248.51 90.4138 1265.66 99.7707C1282.81 108.816 1295.91 120.824 1304.96 135.795V0.119995H1348V346.324H1304.96V298.136C1296.54 313.419 1284.06 326.051 1267.53 336.032C1251 345.701 1231.66 350.535 1209.52 350.535C1186.75 350.535 1166.01 344.921 1147.3 333.693C1128.89 322.464 1114.39 306.714 1103.79 286.44C1093.18 266.167 1087.88 243.087 1087.88 217.199ZM1304.96 217.667C1304.96 198.33 1301.06 181.487 1293.26 167.14C1285.47 152.793 1274.86 141.877 1261.45 134.391C1248.35 126.594 1233.85 122.695 1217.94 122.695C1202.03 122.695 1187.53 126.438 1174.43 133.923C1161.33 141.409 1150.88 152.325 1143.08 166.672C1135.29 181.02 1131.39 197.862 1131.39 217.199C1131.39 236.849 1135.29 254.003 1143.08 268.662C1150.88 283.009 1161.33 294.082 1174.43 301.879C1187.53 309.365 1202.03 313.107 1217.94 313.107C1233.85 313.107 1248.35 309.365 1261.45 301.879C1274.86 294.082 1285.47 283.009 1293.26 268.662C1301.06 254.003 1304.96 237.005 1304.96 217.667Z" fill="white"/>
<path d="M1047.59 208.31C1047.59 216.42 1047.12 224.997 1046.19 234.042H841.271C842.83 259.305 851.407 279.111 867.002 293.458C882.909 307.493 902.09 314.511 924.547 314.511C942.949 314.511 958.231 310.3 970.395 301.879C982.871 293.146 991.604 281.606 996.595 267.259H1042.44C1035.58 291.898 1021.86 312.016 1001.27 327.611C980.688 342.893 955.113 350.535 924.547 350.535C900.219 350.535 878.386 345.077 859.049 334.16C840.023 323.244 825.052 307.805 814.136 287.844C803.219 267.571 797.761 244.178 797.761 217.667C797.761 191.156 803.063 167.92 813.668 147.959C824.272 127.997 839.087 112.714 858.113 102.11C877.451 91.1935 899.595 85.7354 924.547 85.7354C948.875 85.7354 970.395 91.0376 989.109 101.642C1007.82 112.247 1022.17 126.906 1032.15 145.619C1042.44 164.021 1047.59 184.918 1047.59 208.31ZM1003.61 199.421C1003.61 183.203 1000.03 169.323 992.852 157.783C985.678 145.931 975.854 137.042 963.378 131.116C951.214 124.878 937.646 121.759 922.675 121.759C901.155 121.759 882.753 128.621 867.47 142.344C852.499 156.068 843.922 175.094 841.738 199.421H1003.61Z" fill="white"/>
<path d="M723.601 346.324L662.781 250.884L604.301 346.324H559.855L642.664 219.071L559.855 89.946H608.043L668.863 184.918L726.876 89.946H771.321L688.98 216.732L771.789 346.324H723.601Z" fill="white"/>
<path d="M533.601 208.31C533.601 216.42 533.133 224.997 532.198 234.042H327.282C328.842 259.305 337.419 279.111 353.014 293.458C368.92 307.493 388.102 314.511 410.558 314.511C428.96 314.511 444.243 310.3 456.407 301.879C468.883 293.146 477.616 281.606 482.606 267.259H528.455C521.593 291.898 507.87 312.016 487.285 327.611C466.7 342.893 441.124 350.535 410.558 350.535C386.23 350.535 364.398 345.077 345.06 334.16C326.035 323.244 311.064 307.805 300.147 287.844C289.231 267.571 283.773 244.178 283.773 217.667C283.773 191.156 289.075 167.92 299.679 147.959C310.284 127.997 325.099 112.714 344.125 102.11C363.462 91.1935 385.607 85.7354 410.558 85.7354C434.886 85.7354 456.407 91.0376 475.121 101.642C493.835 112.247 508.182 126.906 518.162 145.619C528.455 164.021 533.601 184.918 533.601 208.31ZM489.624 199.421C489.624 183.203 486.037 169.323 478.864 157.783C471.69 145.931 461.865 137.042 449.389 131.116C437.225 124.878 423.658 121.759 408.687 121.759C387.166 121.759 368.764 128.621 353.481 142.344C338.51 156.068 329.933 175.094 327.75 199.421H489.624Z" fill="white"/>
<path d="M125.338 85.2675C156.528 85.2675 181.791 94.7804 201.129 113.806C220.466 132.52 230.135 159.655 230.135 195.211V346.324H188.029V201.293C188.029 175.717 181.635 156.224 168.848 142.812C156.06 129.089 138.594 122.227 116.449 122.227C93.9927 122.227 76.0587 129.245 62.6472 143.28C49.5476 157.315 42.9978 177.745 42.9978 204.568V346.324H0.424011V89.9459H42.9978V126.438C51.419 113.338 62.8032 103.202 77.1504 96.0279C91.8095 88.8543 107.872 85.2675 125.338 85.2675Z" fill="white"/>
</svg>
