<svg width="1244" height="396" viewBox="0 0 1244 396" fill="none" xmlns="http://www.w3.org/2000/svg">
<path d="M1028.19 191.356C1028.19 170.347 1032.5 151.743 1041.1 135.544C1049.96 119.344 1061.86 106.815 1076.79 97.9558C1091.98 88.8436 1108.81 84.2876 1127.29 84.2876C1140.96 84.2876 1154.37 87.3249 1167.53 93.3997C1180.95 99.2214 1191.58 107.068 1199.43 116.939V15.9462H1243.09V296.905H1199.43V265.392C1192.34 275.517 1182.47 283.87 1169.81 290.451C1157.41 297.032 1143.11 300.322 1126.91 300.322C1108.68 300.322 1091.98 295.766 1076.79 286.654C1061.86 277.288 1049.96 264.38 1041.1 247.927C1032.5 231.221 1028.19 212.364 1028.19 191.356ZM1199.43 192.115C1199.43 177.687 1196.39 165.158 1190.31 154.527C1184.49 143.896 1176.77 135.797 1167.15 130.228C1157.54 124.66 1147.16 121.875 1136.02 121.875C1124.88 121.875 1114.51 124.66 1104.89 130.228C1095.27 135.544 1087.42 143.517 1081.35 154.148C1075.53 164.525 1072.61 176.928 1072.61 191.356C1072.61 205.783 1075.53 218.439 1081.35 229.323C1087.42 240.207 1095.27 248.56 1104.89 254.381C1114.76 259.95 1125.14 262.734 1136.02 262.734C1147.16 262.734 1157.54 259.95 1167.15 254.381C1176.77 248.813 1184.49 240.713 1190.31 230.082C1196.39 219.198 1199.43 206.543 1199.43 192.115Z" fill="white"/>
<path d="M1000.03 187.179C1000.03 195.026 999.519 202.113 998.507 208.441H838.664C839.93 225.146 846.131 238.562 857.268 248.686C868.405 258.811 882.074 263.873 898.273 263.873C921.56 263.873 938.012 254.128 947.631 234.638H994.331C988.003 253.875 976.486 269.695 959.78 282.097C943.328 294.247 922.825 300.322 898.273 300.322C878.277 300.322 860.306 295.892 844.359 287.033C828.666 277.921 816.263 265.265 807.151 249.066C798.292 232.613 793.863 213.63 793.863 192.115C793.863 170.6 798.166 151.743 806.772 135.543C815.631 119.091 827.907 106.435 843.6 97.5759C859.546 88.7168 877.771 84.2873 898.273 84.2873C918.016 84.2873 935.608 88.5903 951.048 97.1962C966.488 105.802 978.511 117.952 987.117 133.645C995.723 149.085 1000.03 166.93 1000.03 187.179ZM954.844 173.511C954.591 157.564 948.896 144.782 937.759 135.164C926.622 125.545 912.827 120.736 896.375 120.736C881.441 120.736 868.659 125.545 858.028 135.164C847.397 144.529 841.069 157.311 839.044 173.511H954.844Z" fill="white"/>
<path d="M501.778 396L488.109 389.546L563.285 236.537C559.235 231.728 556.198 226.665 554.173 221.35C552.148 215.781 551.135 209.833 551.135 203.505C551.135 195.912 552.527 188.951 555.312 182.623C558.349 176.295 562.779 170.6 568.6 165.538L527.596 3.79676L542.023 0L581.889 157.565C584.926 156.046 588.09 155.034 591.381 154.527C594.671 153.768 597.962 153.388 601.252 153.388C607.074 153.388 612.516 154.274 617.578 156.046C622.641 157.565 627.323 160.096 631.626 163.64L751.224 69.4803L760.336 81.2503L641.877 174.27C645.168 178.573 647.572 183.256 649.091 188.318C650.61 193.128 651.369 198.19 651.369 203.505C651.369 215.655 647.446 226.412 639.599 235.778L715.534 389.546L701.866 396L627.829 246.029C619.73 251.091 610.871 253.622 601.252 253.622C591.634 253.622 582.901 251.218 575.055 246.408L501.778 396ZM518.483 173.511L480.896 148.453L503.296 146.554L471.783 19.7431L486.211 15.9463L517.724 142.757L539.365 133.645L518.483 173.511Z" fill="#CA1C86"/>
<path d="M438.301 187.179C438.301 195.026 437.795 202.113 436.782 208.441H276.939C278.205 225.146 284.406 238.562 295.543 248.686C306.681 258.811 320.349 263.873 336.548 263.873C359.835 263.873 376.288 254.128 385.906 234.638H432.606C426.278 253.875 414.761 269.695 398.055 282.097C381.603 294.247 361.101 300.322 336.548 300.322C316.552 300.322 298.581 295.892 282.635 287.033C266.941 277.921 254.539 265.265 245.427 249.066C236.567 232.613 232.138 213.63 232.138 192.115C232.138 170.6 236.441 151.743 245.047 135.543C253.906 119.091 266.182 106.435 281.875 97.5759C297.822 88.7168 316.046 84.2873 336.548 84.2873C356.291 84.2873 373.883 88.5903 389.323 97.1962C404.763 105.802 416.786 117.952 425.392 133.645C433.998 149.085 438.301 166.93 438.301 187.179ZM393.12 173.511C392.867 157.564 387.171 144.782 376.034 135.164C364.897 125.545 351.102 120.736 334.65 120.736C319.716 120.736 306.934 125.545 296.303 135.164C285.672 144.529 279.344 157.311 277.319 173.511H393.12Z" fill="white"/>
<path d="M105.549 84.2873C122.002 84.2873 136.683 87.7044 149.592 94.5385C162.754 101.373 173.005 111.497 180.345 124.912C187.686 138.328 191.356 154.527 191.356 173.511V296.905H148.453V179.965C148.453 161.235 143.77 146.934 134.405 137.062C125.039 126.937 112.257 121.875 96.0575 121.875C79.8581 121.875 66.9492 126.937 57.3308 137.062C47.9655 146.934 43.2828 161.235 43.2828 179.965V296.905H0V87.7044H43.2828V111.624C50.3701 103.018 59.3557 96.3103 70.2397 91.5011C81.3768 86.6919 93.1467 84.2873 105.549 84.2873Z" fill="white"/>
</svg>
